<svg width="120" height="120" viewBox="0 0 120 120" fill="none" xmlns="http://www.w3.org/2000/svg">
  <defs>
    <linearGradient id="maroEmeraldGrad" x1="0%" y1="0%" x2="100%" y2="100%">
      <stop offset="0%" stop-color="#6EE7B7" />
      <stop offset="50%" stop-color="#10B981" />
      <stop offset="100%" stop-color="#047857" />
    </linearGradient>
    <linearGradient id="maroTealGrad" x1="0%" y1="100%" x2="100%" y2="0%">
      <stop offset="0%" stop-color="#059669" />
      <stop offset="100%" stop-color="#38BDF8" />
    </linearGradient>
    <linearGradient id="maroMotherGrad" x1="20%" y1="0%" x2="80%" y2="100%">
      <stop offset="0%" stop-color="#A7F3D0" />
      <stop offset="50%" stop-color="#34D399" />
      <stop offset="100%" stop-color="#059669" />
    </linearGradient>
    <linearGradient id="maroShieldBg" x1="0%" y1="0%" x2="0%" y2="100%">
      <stop offset="0%" stop-color="#10B981" stop-opacity="0.20" />
      <stop offset="100%" stop-color="#047857" stop-opacity="0.05" />
    </linearGradient>
    <filter id="softGlow" x="-20%" y="-20%" width="140%" height="140%">
      <feGaussianBlur stdDeviation="3" result="blur" />
      <feComposite in="SourceGraphic" in2="blur" operator="over" />
    </filter>
  </defs>

  <!-- Halo de resplandor sutil -->
  <circle cx="60" cy="58" r="46" fill="url(#maroShieldBg)" />

  <!-- Escudo de Protección Obstétrica -->
  <path
    d="M60 106 C33 93 20 70 20 38 L60 20 L100 38 C100 70 87 93 60 106 Z"
    fill="url(#maroShieldBg)"
    stroke="url(#maroEmeraldGrad)"
    stroke-width="3.5"
    stroke-linejoin="round"
  />

  <!-- Órbitas concéntricas de monitoreo / red -->
  <circle
    cx="60"
    cy="58"
    r="44"
    stroke="url(#maroTealGrad)"
    stroke-width="1.5"
    stroke-dasharray="5 3.5"
    opacity="0.65"
  />
  <circle
    cx="60"
    cy="58"
    r="36"
    stroke="url(#maroEmeraldGrad)"
    stroke-width="1"
    opacity="0.4"
  />

  <!-- Nodos orbitales de vigilancia clínica -->
  <circle cx="60" cy="14" r="3.5" fill="#6EE7B7" filter="url(#softGlow)" />
  <circle cx="104" cy="58" r="3.5" fill="#38BDF8" filter="url(#softGlow)" />
  <circle cx="60" cy="102" r="3.5" fill="#10B981" filter="url(#softGlow)" />
  <circle cx="16" cy="58" r="3.5" fill="#6EE7B7" filter="url(#softGlow)" />
  <circle cx="28" cy="28" r="2.5" fill="#34D399" opacity="0.8" />
  <circle cx="92" cy="88" r="2.5" fill="#38BDF8" opacity="0.8" />

  <!-- Silueta Materna Central en Perfil con Vientre Gestante -->
  <circle cx="60" cy="38" r="6.5" fill="#A7F3D0" />
  <path
    d="M54 33 C54 27 66 27 67 34 C68 41 57 44 56 50"
    stroke="#6EE7B7"
    stroke-width="2.5"
    stroke-linecap="round"
    fill="none"
  />
  <path
    d="M57 44 C52 49 50 56 51 64 C53 73 57 79 63 82 C69 85 74 81 75 74 C76 66 71 58 65 56 C61 54 60 49 57 44 Z"
    fill="url(#maroMotherGrad)"
  />
  <path
    d="M55 52 C49 57 49 67 54 73 C58 77 64 78 68 76"
    stroke="#E0F2FE"
    stroke-width="2.5"
    stroke-linecap="round"
    fill="none"
    opacity="0.9"
  />

  <!-- Punto de vida fetal radiante -->
  <circle cx="64" cy="69" r="3" fill="#FFFFFF" filter="url(#softGlow)" />
</svg>
